<?xml version="1.0" encoding="utf-8"?>
<svg xmlns="http://www.w3.org/2000/svg" xmlns:xlink="http://www.w3.org/1999/xlink" width="600" height="400" viewBox="0 0 2400 1600">
<defs>
  <clipPath id="clip130">
    <rect x="0" y="0" width="2400" height="1600"/>
  </clipPath>
</defs>
<path clip-path="url(#clip130)" d="M0 1600 L2400 1600 L2400 0 L0 0  Z" fill="#ffffff" fill-rule="evenodd" fill-opacity="1"/>
<defs>
  <clipPath id="clip131">
    <rect x="480" y="0" width="1681" height="1600"/>
  </clipPath>
</defs>
<path clip-path="url(#clip130)" d="M247.459 1423.18 L2352.76 1423.18 L2352.76 47.2441 L247.459 47.2441  Z" fill="#ffffff" fill-rule="evenodd" fill-opacity="1"/>
<defs>
  <clipPath id="clip132">
    <rect x="247" y="47" width="2106" height="1377"/>
  </clipPath>
</defs>
<polyline clip-path="url(#clip132)" style="stroke:#000000; stroke-linecap:round; stroke-linejoin:round; stroke-width:2; stroke-opacity:0.1; fill:none" points="307.043,1423.18 307.043,47.2441 "/>
<polyline clip-path="url(#clip132)" style="stroke:#000000; stroke-linecap:round; stroke-linejoin:round; stroke-width:2; stroke-opacity:0.1; fill:none" points="769.677,1423.18 769.677,47.2441 "/>
<polyline clip-path="url(#clip132)" style="stroke:#000000; stroke-linecap:round; stroke-linejoin:round; stroke-width:2; stroke-opacity:0.1; fill:none" points="1232.31,1423.18 1232.31,47.2441 "/>
<polyline clip-path="url(#clip132)" style="stroke:#000000; stroke-linecap:round; stroke-linejoin:round; stroke-width:2; stroke-opacity:0.1; fill:none" points="1694.94,1423.18 1694.94,47.2441 "/>
<polyline clip-path="url(#clip132)" style="stroke:#000000; stroke-linecap:round; stroke-linejoin:round; stroke-width:2; stroke-opacity:0.1; fill:none" points="2157.58,1423.18 2157.58,47.2441 "/>
<polyline clip-path="url(#clip130)" style="stroke:#000000; stroke-linecap:round; stroke-linejoin:round; stroke-width:4; stroke-opacity:1; fill:none" points="247.459,1423.18 2352.76,1423.18 "/>
<polyline clip-path="url(#clip130)" style="stroke:#000000; stroke-linecap:round; stroke-linejoin:round; stroke-width:4; stroke-opacity:1; fill:none" points="307.043,1423.18 307.043,1404.28 "/>
<polyline clip-path="url(#clip130)" style="stroke:#000000; stroke-linecap:round; stroke-linejoin:round; stroke-width:4; stroke-opacity:1; fill:none" points="769.677,1423.18 769.677,1404.28 "/>
<polyline clip-path="url(#clip130)" style="stroke:#000000; stroke-linecap:round; stroke-linejoin:round; stroke-width:4; stroke-opacity:1; fill:none" points="1232.31,1423.18 1232.31,1404.28 "/>
<polyline clip-path="url(#clip130)" style="stroke:#000000; stroke-linecap:round; stroke-linejoin:round; stroke-width:4; stroke-opacity:1; fill:none" points="1694.94,1423.18 1694.94,1404.28 "/>
<polyline clip-path="url(#clip130)" style="stroke:#000000; stroke-linecap:round; stroke-linejoin:round; stroke-width:4; stroke-opacity:1; fill:none" points="2157.58,1423.18 2157.58,1404.28 "/>
<path clip-path="url(#clip130)" d="M284.427 1454.1 Q280.816 1454.1 278.987 1457.66 Q277.182 1461.2 277.182 1468.33 Q277.182 1475.44 278.987 1479.01 Q280.816 1482.55 284.427 1482.55 Q288.061 1482.55 289.867 1479.01 Q291.695 1475.44 291.695 1468.33 Q291.695 1461.2 289.867 1457.66 Q288.061 1454.1 284.427 1454.1 M284.427 1450.39 Q290.237 1450.39 293.293 1455 Q296.371 1459.58 296.371 1468.33 Q296.371 1477.06 293.293 1481.67 Q290.237 1486.25 284.427 1486.25 Q278.617 1486.25 275.538 1481.67 Q272.483 1477.06 272.483 1468.33 Q272.483 1459.58 275.538 1455 Q278.617 1450.39 284.427 1450.39 Z" fill="#000000" fill-rule="nonzero" fill-opacity="1" /><path clip-path="url(#clip130)" d="M304.589 1479.7 L309.473 1479.7 L309.473 1485.58 L304.589 1485.58 L304.589 1479.7 Z" fill="#000000" fill-rule="nonzero" fill-opacity="1" /><path clip-path="url(#clip130)" d="M329.658 1454.1 Q326.047 1454.1 324.218 1457.66 Q322.413 1461.2 322.413 1468.33 Q322.413 1475.44 324.218 1479.01 Q326.047 1482.55 329.658 1482.55 Q333.292 1482.55 335.098 1479.01 Q336.927 1475.44 336.927 1468.33 Q336.927 1461.2 335.098 1457.66 Q333.292 1454.1 329.658 1454.1 M329.658 1450.39 Q335.468 1450.39 338.524 1455 Q341.603 1459.58 341.603 1468.33 Q341.603 1477.06 338.524 1481.67 Q335.468 1486.25 329.658 1486.25 Q323.848 1486.25 320.769 1481.67 Q317.714 1477.06 317.714 1468.33 Q317.714 1459.58 320.769 1455 Q323.848 1450.39 329.658 1450.39 Z" fill="#000000" fill-rule="nonzero" fill-opacity="1" /><path clip-path="url(#clip130)" d="M747.559 1454.1 Q743.948 1454.1 742.119 1457.66 Q740.313 1461.2 740.313 1468.33 Q740.313 1475.44 742.119 1479.01 Q743.948 1482.55 747.559 1482.55 Q751.193 1482.55 752.998 1479.01 Q754.827 1475.44 754.827 1468.33 Q754.827 1461.2 752.998 1457.66 Q751.193 1454.1 747.559 1454.1 M747.559 1450.39 Q753.369 1450.39 756.424 1455 Q759.503 1459.58 759.503 1468.33 Q759.503 1477.06 756.424 1481.67 Q753.369 1486.25 747.559 1486.25 Q741.749 1486.25 738.67 1481.67 Q735.614 1477.06 735.614 1468.33 Q735.614 1459.58 738.67 1455 Q741.749 1450.39 747.559 1450.39 Z" fill="#000000" fill-rule="nonzero" fill-opacity="1" /><path clip-path="url(#clip130)" d="M767.721 1479.7 L772.605 1479.7 L772.605 1485.58 L767.721 1485.58 L767.721 1479.7 Z" fill="#000000" fill-rule="nonzero" fill-opacity="1" /><path clip-path="url(#clip130)" d="M782.836 1451.02 L801.193 1451.02 L801.193 1454.96 L787.119 1454.96 L787.119 1463.43 Q788.137 1463.08 789.156 1462.92 Q790.174 1462.73 791.193 1462.73 Q796.98 1462.73 800.359 1465.9 Q803.739 1469.08 803.739 1474.49 Q803.739 1480.07 800.267 1483.17 Q796.795 1486.25 790.475 1486.25 Q788.299 1486.25 786.031 1485.88 Q783.785 1485.51 781.378 1484.77 L781.378 1480.07 Q783.461 1481.2 785.683 1481.76 Q787.906 1482.32 790.383 1482.32 Q794.387 1482.32 796.725 1480.21 Q799.063 1478.1 799.063 1474.49 Q799.063 1470.88 796.725 1468.77 Q794.387 1466.67 790.383 1466.67 Q788.508 1466.67 786.633 1467.08 Q784.781 1467.5 782.836 1468.38 L782.836 1451.02 Z" fill="#000000" fill-rule="nonzero" fill-opacity="1" /><path clip-path="url(#clip130)" d="M1199.46 1481.64 L1207.1 1481.64 L1207.1 1455.28 L1198.79 1456.95 L1198.79 1452.69 L1207.06 1451.02 L1211.73 1451.02 L1211.73 1481.64 L1219.37 1481.64 L1219.37 1485.58 L1199.46 1485.58 L1199.46 1481.64 Z" fill="#000000" fill-rule="nonzero" fill-opacity="1" /><path clip-path="url(#clip130)" d="M1228.82 1479.7 L1233.7 1479.7 L1233.7 1485.58 L1228.82 1485.58 L1228.82 1479.7 Z" fill="#000000" fill-rule="nonzero" fill-opacity="1" /><path clip-path="url(#clip130)" d="M1253.88 1454.1 Q1250.27 1454.1 1248.44 1457.66 Q1246.64 1461.2 1246.64 1468.33 Q1246.64 1475.44 1248.44 1479.01 Q1250.27 1482.55 1253.88 1482.55 Q1257.52 1482.55 1259.32 1479.01 Q1261.15 1475.44 1261.15 1468.33 Q1261.15 1461.2 1259.32 1457.66 Q1257.52 1454.1 1253.88 1454.1 M1253.88 1450.39 Q1259.69 1450.39 1262.75 1455 Q1265.83 1459.58 1265.83 1468.33 Q1265.83 1477.06 1262.75 1481.67 Q1259.69 1486.25 1253.88 1486.25 Q1248.07 1486.25 1245 1481.67 Q1241.94 1477.06 1241.94 1468.33 Q1241.94 1459.58 1245 1455 Q1248.07 1450.39 1253.88 1450.39 Z" fill="#000000" fill-rule="nonzero" fill-opacity="1" /><path clip-path="url(#clip130)" d="M1662.6 1481.64 L1670.23 1481.64 L1670.23 1455.28 L1661.92 1456.95 L1661.92 1452.69 L1670.19 1451.02 L1674.86 1451.02 L1674.86 1481.64 L1682.5 1481.64 L1682.5 1485.58 L1662.6 1485.58 L1662.6 1481.64 Z" fill="#000000" fill-rule="nonzero" fill-opacity="1" /><path clip-path="url(#clip130)" d="M1691.95 1479.7 L1696.83 1479.7 L1696.83 1485.58 L1691.95 1485.58 L1691.95 1479.7 Z" fill="#000000" fill-rule="nonzero" fill-opacity="1" /><path clip-path="url(#clip130)" d="M1707.06 1451.02 L1725.42 1451.02 L1725.42 1454.96 L1711.35 1454.96 L1711.35 1463.43 Q1712.36 1463.08 1713.38 1462.92 Q1714.4 1462.73 1715.42 1462.73 Q1721.21 1462.73 1724.59 1465.9 Q1727.97 1469.08 1727.97 1474.49 Q1727.97 1480.07 1724.49 1483.17 Q1721.02 1486.25 1714.7 1486.25 Q1712.53 1486.25 1710.26 1485.88 Q1708.01 1485.51 1705.6 1484.77 L1705.6 1480.07 Q1707.69 1481.2 1709.91 1481.76 Q1712.13 1482.32 1714.61 1482.32 Q1718.61 1482.32 1720.95 1480.21 Q1723.29 1478.1 1723.29 1474.49 Q1723.29 1470.88 1720.95 1468.77 Q1718.61 1466.67 1714.61 1466.67 Q1712.73 1466.67 1710.86 1467.08 Q1709.01 1467.5 1707.06 1468.38 L1707.06 1451.02 Z" fill="#000000" fill-rule="nonzero" fill-opacity="1" /><path clip-path="url(#clip130)" d="M2128.82 1481.64 L2145.14 1481.64 L2145.14 1485.58 L2123.19 1485.58 L2123.19 1481.64 Q2125.85 1478.89 2130.44 1474.26 Q2135.04 1469.61 2136.22 1468.27 Q2138.47 1465.74 2139.35 1464.01 Q2140.25 1462.25 2140.25 1460.56 Q2140.25 1457.8 2138.31 1456.07 Q2136.39 1454.33 2133.28 1454.33 Q2131.09 1454.33 2128.63 1455.09 Q2126.2 1455.86 2123.42 1457.41 L2123.42 1452.69 Q2126.25 1451.55 2128.7 1450.97 Q2131.16 1450.39 2133.19 1450.39 Q2138.56 1450.39 2141.76 1453.08 Q2144.95 1455.77 2144.95 1460.26 Q2144.95 1462.39 2144.14 1464.31 Q2143.35 1466.2 2141.25 1468.8 Q2140.67 1469.47 2137.57 1472.69 Q2134.47 1475.88 2128.82 1481.64 Z" fill="#000000" fill-rule="nonzero" fill-opacity="1" /><path clip-path="url(#clip130)" d="M2154.95 1479.7 L2159.84 1479.7 L2159.84 1485.58 L2154.95 1485.58 L2154.95 1479.7 Z" fill="#000000" fill-rule="nonzero" fill-opacity="1" /><path clip-path="url(#clip130)" d="M2180.02 1454.1 Q2176.41 1454.1 2174.58 1457.66 Q2172.78 1461.2 2172.78 1468.33 Q2172.78 1475.44 2174.58 1479.01 Q2176.41 1482.55 2180.02 1482.55 Q2183.65 1482.55 2185.46 1479.01 Q2187.29 1475.44 2187.29 1468.33 Q2187.29 1461.2 2185.46 1457.66 Q2183.65 1454.1 2180.02 1454.1 M2180.02 1450.39 Q2185.83 1450.39 2188.89 1455 Q2191.97 1459.58 2191.97 1468.33 Q2191.97 1477.06 2188.89 1481.67 Q2185.83 1486.25 2180.02 1486.25 Q2174.21 1486.25 2171.13 1481.67 Q2168.08 1477.06 2168.08 1468.33 Q2168.08 1459.58 2171.13 1455 Q2174.21 1450.39 2180.02 1450.39 Z" fill="#000000" fill-rule="nonzero" fill-opacity="1" /><path clip-path="url(#clip130)" d="M1187.56 1522.27 L1187.56 1532.4 L1199.62 1532.4 L1199.62 1536.95 L1187.56 1536.95 L1187.56 1556.3 Q1187.56 1560.66 1188.74 1561.9 Q1189.95 1563.14 1193.61 1563.14 L1199.62 1563.14 L1199.62 1568.04 L1193.61 1568.04 Q1186.83 1568.04 1184.25 1565.53 Q1181.67 1562.98 1181.67 1556.3 L1181.67 1536.95 L1177.38 1536.95 L1177.38 1532.4 L1181.67 1532.4 L1181.67 1522.27 L1187.56 1522.27 Z" fill="#000000" fill-rule="nonzero" fill-opacity="1" /><path clip-path="url(#clip130)" d="M1207.33 1532.4 L1213.18 1532.4 L1213.18 1568.04 L1207.33 1568.04 L1207.33 1532.4 M1207.33 1518.52 L1213.18 1518.52 L1213.18 1525.93 L1207.33 1525.93 L1207.33 1518.52 Z" fill="#000000" fill-rule="nonzero" fill-opacity="1" /><path clip-path="url(#clip130)" d="M1253.19 1539.24 Q1255.39 1535.29 1258.44 1533.41 Q1261.5 1531.54 1265.64 1531.54 Q1271.21 1531.54 1274.23 1535.45 Q1277.25 1539.33 1277.25 1546.53 L1277.25 1568.04 L1271.37 1568.04 L1271.37 1546.72 Q1271.37 1541.59 1269.55 1539.11 Q1267.74 1536.63 1264.01 1536.63 Q1259.46 1536.63 1256.82 1539.65 Q1254.18 1542.68 1254.18 1547.9 L1254.18 1568.04 L1248.29 1568.04 L1248.29 1546.72 Q1248.29 1541.56 1246.48 1539.11 Q1244.66 1536.63 1240.87 1536.63 Q1236.39 1536.63 1233.74 1539.68 Q1231.1 1542.71 1231.1 1547.9 L1231.1 1568.04 L1225.21 1568.04 L1225.21 1532.4 L1231.1 1532.4 L1231.1 1537.93 Q1233.11 1534.66 1235.91 1533.1 Q1238.71 1531.54 1242.56 1531.54 Q1246.44 1531.54 1249.15 1533.51 Q1251.89 1535.48 1253.19 1539.24 Z" fill="#000000" fill-rule="nonzero" fill-opacity="1" /><path clip-path="url(#clip130)" d="M1319.43 1548.76 L1319.43 1551.62 L1292.5 1551.62 Q1292.88 1557.67 1296.13 1560.85 Q1299.41 1564 1305.23 1564 Q1308.61 1564 1311.76 1563.17 Q1314.94 1562.35 1318.06 1560.69 L1318.06 1566.23 Q1314.91 1567.57 1311.6 1568.27 Q1308.29 1568.97 1304.88 1568.97 Q1296.35 1568.97 1291.35 1564 Q1286.39 1559.04 1286.39 1550.57 Q1286.39 1541.82 1291.1 1536.69 Q1295.84 1531.54 1303.86 1531.54 Q1311.06 1531.54 1315.23 1536.18 Q1319.43 1540.8 1319.43 1548.76 M1313.57 1547.04 Q1313.51 1542.23 1310.87 1539.37 Q1308.26 1536.5 1303.93 1536.5 Q1299.03 1536.5 1296.07 1539.27 Q1293.14 1542.04 1292.69 1547.07 L1313.57 1547.04 Z" fill="#000000" fill-rule="nonzero" fill-opacity="1" /><path clip-path="url(#clip130)" d="M1349.22 1518.52 L1362.71 1518.52 L1362.71 1523.07 L1355.08 1523.07 L1355.08 1572.09 L1362.71 1572.09 L1362.71 1576.64 L1349.22 1576.64 L1349.22 1518.52 Z" fill="#000000" fill-rule="nonzero" fill-opacity="1" /><path clip-path="url(#clip130)" d="M1397.92 1533.45 L1397.92 1538.98 Q1395.43 1537.71 1392.76 1537.07 Q1390.09 1536.44 1387.22 1536.44 Q1382.86 1536.44 1380.67 1537.77 Q1378.5 1539.11 1378.5 1541.79 Q1378.5 1543.82 1380.06 1545 Q1381.62 1546.15 1386.33 1547.2 L1388.34 1547.64 Q1394.57 1548.98 1397.18 1551.43 Q1399.83 1553.85 1399.83 1558.21 Q1399.83 1563.17 1395.88 1566.07 Q1391.96 1568.97 1385.09 1568.97 Q1382.22 1568.97 1379.11 1568.39 Q1376.02 1567.85 1372.58 1566.74 L1372.58 1560.69 Q1375.83 1562.38 1378.98 1563.24 Q1382.13 1564.07 1385.22 1564.07 Q1389.35 1564.07 1391.58 1562.66 Q1393.81 1561.23 1393.81 1558.65 Q1393.81 1556.27 1392.19 1554.99 Q1390.6 1553.72 1385.15 1552.54 L1383.12 1552.07 Q1377.67 1550.92 1375.25 1548.56 Q1372.84 1546.18 1372.84 1542.04 Q1372.84 1537.01 1376.4 1534.27 Q1379.97 1531.54 1386.52 1531.54 Q1389.77 1531.54 1392.63 1532.01 Q1395.5 1532.49 1397.92 1533.45 Z" fill="#000000" fill-rule="nonzero" fill-opacity="1" /><path clip-path="url(#clip130)" d="M1422.84 1518.52 L1422.84 1576.64 L1409.34 1576.64 L1409.34 1572.09 L1416.95 1572.09 L1416.95 1523.07 L1409.34 1523.07 L1409.34 1518.52 L1422.84 1518.52 Z" fill="#000000" fill-rule="nonzero" fill-opacity="1" /><polyline clip-path="url(#clip132)" style="stroke:#000000; stroke-linecap:round; stroke-linejoin:round; stroke-width:2; stroke-opacity:0.1; fill:none" points="247.459,1358.28 2352.76,1358.28 "/>
<polyline clip-path="url(#clip132)" style="stroke:#000000; stroke-linecap:round; stroke-linejoin:round; stroke-width:2; stroke-opacity:0.1; fill:none" points="247.459,1033.76 2352.76,1033.76 "/>
<polyline clip-path="url(#clip132)" style="stroke:#000000; stroke-linecap:round; stroke-linejoin:round; stroke-width:2; stroke-opacity:0.1; fill:none" points="247.459,709.251 2352.76,709.251 "/>
<polyline clip-path="url(#clip132)" style="stroke:#000000; stroke-linecap:round; stroke-linejoin:round; stroke-width:2; stroke-opacity:0.1; fill:none" points="247.459,384.738 2352.76,384.738 "/>
<polyline clip-path="url(#clip132)" style="stroke:#000000; stroke-linecap:round; stroke-linejoin:round; stroke-width:2; stroke-opacity:0.1; fill:none" points="247.459,60.2246 2352.76,60.2246 "/>
<polyline clip-path="url(#clip130)" style="stroke:#000000; stroke-linecap:round; stroke-linejoin:round; stroke-width:4; stroke-opacity:1; fill:none" points="247.459,1423.18 247.459,47.2441 "/>
<polyline clip-path="url(#clip130)" style="stroke:#000000; stroke-linecap:round; stroke-linejoin:round; stroke-width:4; stroke-opacity:1; fill:none" points="247.459,1358.28 266.356,1358.28 "/>
<polyline clip-path="url(#clip130)" style="stroke:#000000; stroke-linecap:round; stroke-linejoin:round; stroke-width:4; stroke-opacity:1; fill:none" points="247.459,1033.76 266.356,1033.76 "/>
<polyline clip-path="url(#clip130)" style="stroke:#000000; stroke-linecap:round; stroke-linejoin:round; stroke-width:4; stroke-opacity:1; fill:none" points="247.459,709.251 266.356,709.251 "/>
<polyline clip-path="url(#clip130)" style="stroke:#000000; stroke-linecap:round; stroke-linejoin:round; stroke-width:4; stroke-opacity:1; fill:none" points="247.459,384.738 266.356,384.738 "/>
<polyline clip-path="url(#clip130)" style="stroke:#000000; stroke-linecap:round; stroke-linejoin:round; stroke-width:4; stroke-opacity:1; fill:none" points="247.459,60.2246 266.356,60.2246 "/>
<path clip-path="url(#clip130)" d="M149.306 1371.62 L165.626 1371.62 L165.626 1375.56 L143.681 1375.56 L143.681 1371.62 Q146.343 1368.87 150.927 1364.24 Q155.533 1359.59 156.714 1358.24 Q158.959 1355.72 159.839 1353.98 Q160.741 1352.22 160.741 1350.53 Q160.741 1347.78 158.797 1346.04 Q156.876 1344.31 153.774 1344.31 Q151.575 1344.31 149.121 1345.07 Q146.691 1345.84 143.913 1347.39 L143.913 1342.66 Q146.737 1341.53 149.191 1340.95 Q151.644 1340.37 153.681 1340.37 Q159.052 1340.37 162.246 1343.06 Q165.44 1345.74 165.44 1350.23 Q165.44 1352.36 164.63 1354.28 Q163.843 1356.18 161.737 1358.77 Q161.158 1359.45 158.056 1362.66 Q154.954 1365.86 149.306 1371.62 Z" fill="#000000" fill-rule="nonzero" fill-opacity="1" /><path clip-path="url(#clip130)" d="M175.44 1369.68 L180.325 1369.68 L180.325 1375.56 L175.44 1375.56 L175.44 1369.68 Z" fill="#000000" fill-rule="nonzero" fill-opacity="1" /><path clip-path="url(#clip130)" d="M190.556 1341 L208.912 1341 L208.912 1344.93 L194.838 1344.93 L194.838 1353.4 Q195.857 1353.06 196.875 1352.9 Q197.894 1352.71 198.912 1352.71 Q204.699 1352.71 208.079 1355.88 Q211.459 1359.05 211.459 1364.47 Q211.459 1370.05 207.987 1373.15 Q204.514 1376.23 198.195 1376.23 Q196.019 1376.23 193.75 1375.86 Q191.505 1375.49 189.098 1374.75 L189.098 1370.05 Q191.181 1371.18 193.403 1371.74 Q195.625 1372.29 198.102 1372.29 Q202.107 1372.29 204.445 1370.19 Q206.783 1368.08 206.783 1364.47 Q206.783 1360.86 204.445 1358.75 Q202.107 1356.65 198.102 1356.65 Q196.227 1356.65 194.352 1357.06 Q192.5 1357.48 190.556 1358.36 L190.556 1341 Z" fill="#000000" fill-rule="nonzero" fill-opacity="1" /><path clip-path="url(#clip130)" d="M144.329 1016.48 L162.686 1016.48 L162.686 1020.42 L148.612 1020.42 L148.612 1028.89 Q149.63 1028.54 150.649 1028.38 Q151.667 1028.2 152.686 1028.2 Q158.473 1028.2 161.852 1031.37 Q165.232 1034.54 165.232 1039.96 Q165.232 1045.53 161.76 1048.64 Q158.288 1051.72 151.968 1051.72 Q149.792 1051.72 147.524 1051.34 Q145.279 1050.97 142.871 1050.23 L142.871 1045.53 Q144.954 1046.67 147.177 1047.22 Q149.399 1047.78 151.876 1047.78 Q155.88 1047.78 158.218 1045.67 Q160.556 1043.57 160.556 1039.96 Q160.556 1036.35 158.218 1034.24 Q155.88 1032.13 151.876 1032.13 Q150.001 1032.13 148.126 1032.55 Q146.274 1032.97 144.329 1033.85 L144.329 1016.48 Z" fill="#000000" fill-rule="nonzero" fill-opacity="1" /><path clip-path="url(#clip130)" d="M174.445 1045.16 L179.329 1045.16 L179.329 1051.04 L174.445 1051.04 L174.445 1045.16 Z" fill="#000000" fill-rule="nonzero" fill-opacity="1" /><path clip-path="url(#clip130)" d="M199.514 1019.56 Q195.903 1019.56 194.075 1023.13 Q192.269 1026.67 192.269 1033.8 Q192.269 1040.91 194.075 1044.47 Q195.903 1048.01 199.514 1048.01 Q203.149 1048.01 204.954 1044.47 Q206.783 1040.91 206.783 1033.8 Q206.783 1026.67 204.954 1023.13 Q203.149 1019.56 199.514 1019.56 M199.514 1015.86 Q205.324 1015.86 208.38 1020.47 Q211.459 1025.05 211.459 1033.8 Q211.459 1042.53 208.38 1047.13 Q205.324 1051.72 199.514 1051.72 Q193.704 1051.72 190.625 1047.13 Q187.57 1042.53 187.57 1033.8 Q187.57 1025.05 190.625 1020.47 Q193.704 1015.86 199.514 1015.86 Z" fill="#000000" fill-rule="nonzero" fill-opacity="1" /><path clip-path="url(#clip130)" d="M144.098 691.971 L166.32 691.971 L166.32 693.962 L153.774 726.531 L148.89 726.531 L160.695 695.906 L144.098 695.906 L144.098 691.971 Z" fill="#000000" fill-rule="nonzero" fill-opacity="1" /><path clip-path="url(#clip130)" d="M175.44 720.651 L180.325 720.651 L180.325 726.531 L175.44 726.531 L175.44 720.651 Z" fill="#000000" fill-rule="nonzero" fill-opacity="1" /><path clip-path="url(#clip130)" d="M190.556 691.971 L208.912 691.971 L208.912 695.906 L194.838 695.906 L194.838 704.378 Q195.857 704.031 196.875 703.869 Q197.894 703.684 198.912 703.684 Q204.699 703.684 208.079 706.855 Q211.459 710.026 211.459 715.443 Q211.459 721.022 207.987 724.124 Q204.514 727.202 198.195 727.202 Q196.019 727.202 193.75 726.832 Q191.505 726.461 189.098 725.721 L189.098 721.022 Q191.181 722.156 193.403 722.711 Q195.625 723.267 198.102 723.267 Q202.107 723.267 204.445 721.161 Q206.783 719.054 206.783 715.443 Q206.783 711.832 204.445 709.725 Q202.107 707.619 198.102 707.619 Q196.227 707.619 194.352 708.036 Q192.5 708.452 190.556 709.332 L190.556 691.971 Z" fill="#000000" fill-rule="nonzero" fill-opacity="1" /><path clip-path="url(#clip130)" d="M114.931 398.083 L122.57 398.083 L122.57 371.717 L114.26 373.384 L114.26 369.124 L122.524 367.458 L127.2 367.458 L127.2 398.083 L134.839 398.083 L134.839 402.018 L114.931 402.018 L114.931 398.083 Z" fill="#000000" fill-rule="nonzero" fill-opacity="1" /><path clip-path="url(#clip130)" d="M154.283 370.536 Q150.672 370.536 148.843 374.101 Q147.038 377.643 147.038 384.772 Q147.038 391.879 148.843 395.444 Q150.672 398.985 154.283 398.985 Q157.917 398.985 159.723 395.444 Q161.552 391.879 161.552 384.772 Q161.552 377.643 159.723 374.101 Q157.917 370.536 154.283 370.536 M154.283 366.833 Q160.093 366.833 163.149 371.439 Q166.227 376.023 166.227 384.772 Q166.227 393.499 163.149 398.106 Q160.093 402.689 154.283 402.689 Q148.473 402.689 145.394 398.106 Q142.339 393.499 142.339 384.772 Q142.339 376.023 145.394 371.439 Q148.473 366.833 154.283 366.833 Z" fill="#000000" fill-rule="nonzero" fill-opacity="1" /><path clip-path="url(#clip130)" d="M174.445 396.138 L179.329 396.138 L179.329 402.018 L174.445 402.018 L174.445 396.138 Z" fill="#000000" fill-rule="nonzero" fill-opacity="1" /><path clip-path="url(#clip130)" d="M199.514 370.536 Q195.903 370.536 194.075 374.101 Q192.269 377.643 192.269 384.772 Q192.269 391.879 194.075 395.444 Q195.903 398.985 199.514 398.985 Q203.149 398.985 204.954 395.444 Q206.783 391.879 206.783 384.772 Q206.783 377.643 204.954 374.101 Q203.149 370.536 199.514 370.536 M199.514 366.833 Q205.324 366.833 208.38 371.439 Q211.459 376.023 211.459 384.772 Q211.459 393.499 208.38 398.106 Q205.324 402.689 199.514 402.689 Q193.704 402.689 190.625 398.106 Q187.57 393.499 187.57 384.772 Q187.57 376.023 190.625 371.439 Q193.704 366.833 199.514 366.833 Z" fill="#000000" fill-rule="nonzero" fill-opacity="1" /><path clip-path="url(#clip130)" d="M115.927 73.5695 L123.566 73.5695 L123.566 47.2039 L115.256 48.8705 L115.256 44.6113 L123.519 42.9446 L128.195 42.9446 L128.195 73.5695 L135.834 73.5695 L135.834 77.5046 L115.927 77.5046 L115.927 73.5695 Z" fill="#000000" fill-rule="nonzero" fill-opacity="1" /><path clip-path="url(#clip130)" d="M149.306 73.5695 L165.626 73.5695 L165.626 77.5046 L143.681 77.5046 L143.681 73.5695 Q146.343 70.8148 150.927 66.1852 Q155.533 61.5325 156.714 60.1899 Q158.959 57.6668 159.839 55.9307 Q160.741 54.1714 160.741 52.4816 Q160.741 49.727 158.797 47.9909 Q156.876 46.2548 153.774 46.2548 Q151.575 46.2548 149.121 47.0187 Q146.691 47.7826 143.913 49.3335 L143.913 44.6113 Q146.737 43.477 149.191 42.8983 Q151.644 42.3196 153.681 42.3196 Q159.052 42.3196 162.246 45.0048 Q165.44 47.69 165.44 52.1807 Q165.44 54.3103 164.63 56.2316 Q163.843 58.1297 161.737 60.7223 Q161.158 61.3936 158.056 64.6112 Q154.954 67.8056 149.306 73.5695 Z" fill="#000000" fill-rule="nonzero" fill-opacity="1" /><path clip-path="url(#clip130)" d="M175.44 71.625 L180.325 71.625 L180.325 77.5046 L175.44 77.5046 L175.44 71.625 Z" fill="#000000" fill-rule="nonzero" fill-opacity="1" /><path clip-path="url(#clip130)" d="M190.556 42.9446 L208.912 42.9446 L208.912 46.8798 L194.838 46.8798 L194.838 55.352 Q195.857 55.0047 196.875 54.8427 Q197.894 54.6575 198.912 54.6575 Q204.699 54.6575 208.079 57.8288 Q211.459 61.0001 211.459 66.4167 Q211.459 71.9954 207.987 75.0972 Q204.514 78.1759 198.195 78.1759 Q196.019 78.1759 193.75 77.8055 Q191.505 77.4352 189.098 76.6944 L189.098 71.9954 Q191.181 73.1296 193.403 73.6852 Q195.625 74.2407 198.102 74.2407 Q202.107 74.2407 204.445 72.1343 Q206.783 70.0278 206.783 66.4167 Q206.783 62.8056 204.445 60.6992 Q202.107 58.5927 198.102 58.5927 Q196.227 58.5927 194.352 59.0093 Q192.5 59.426 190.556 60.3056 L190.556 42.9446 Z" fill="#000000" fill-rule="nonzero" fill-opacity="1" /><path clip-path="url(#clip130)" d="M29.4065 781.889 L34.9447 781.889 Q33.6716 784.371 33.035 787.045 Q32.3984 789.718 32.3984 792.583 Q32.3984 796.943 33.7352 799.14 Q35.072 801.304 37.7456 801.304 Q39.7826 801.304 40.9603 799.744 Q42.1061 798.185 43.1565 793.474 L43.6021 791.469 Q44.9389 785.231 47.3897 782.621 Q49.8086 779.979 54.1691 779.979 Q59.1344 779.979 62.0308 783.926 Q64.9272 787.84 64.9272 794.715 Q64.9272 797.58 64.3543 800.699 Q63.8132 803.787 62.6992 807.224 L56.6518 807.224 Q58.3387 803.978 59.198 800.826 Q60.0256 797.675 60.0256 794.588 Q60.0256 790.45 58.6251 788.222 Q57.1929 785.994 54.6147 785.994 Q52.2276 785.994 50.9545 787.618 Q49.6813 789.209 48.5037 794.652 L48.0262 796.689 Q46.8804 802.131 44.5251 804.55 Q42.138 806.969 38.0002 806.969 Q32.9713 806.969 30.2341 803.405 Q27.4968 799.84 27.4968 793.283 Q27.4968 790.037 27.9743 787.172 Q28.4517 784.307 29.4065 781.889 Z" fill="#000000" fill-rule="nonzero" fill-opacity="1" /><path clip-path="url(#clip130)" d="M16.4842 746.368 L34.2127 729.085 L34.2127 735.483 L21.6404 749.487 L34.2127 763.492 L34.2127 769.889 L16.4842 752.606 L16.4842 746.368 Z" fill="#000000" fill-rule="nonzero" fill-opacity="1" /><path clip-path="url(#clip130)" d="M43.5384 718.995 L43.5384 701.84 L48.7583 701.84 L48.7583 718.995 L43.5384 718.995 Z" fill="#000000" fill-rule="nonzero" fill-opacity="1" /><path clip-path="url(#clip130)" d="M58.5933 690.572 L58.5933 680.069 L22.3406 680.069 L24.6323 691.495 L18.7758 691.495 L16.4842 680.133 L16.4842 673.703 L58.5933 673.703 L58.5933 663.2 L64.0042 663.2 L64.0042 690.572 L58.5933 690.572 Z" fill="#000000" fill-rule="nonzero" fill-opacity="1" /><polyline clip-path="url(#clip132)" style="stroke:#009af9; stroke-linecap:round; stroke-linejoin:round; stroke-width:4; stroke-opacity:1; fill:none" points="307.043,86.1857 362.736,254.933 379.023,384.738 399.484,540.504 409.979,696.27 420.398,800.115 430.495,877.998 440.548,955.881 450.588,1020.78 460.587,1072.71 470.614,1124.63 480.546,1163.57 490.634,1202.51 500.585,1228.47 513.934,1241.45 529.071,1267.41 544.206,1306.36 560.075,1332.32 570.133,1345.3 580.138,1358.28 590.063,1371.26 599.965,1371.26 610.035,1371.26 619.996,1384.24 629.907,1384.24 639.82,1384.24 649.718,1371.26 659.633,1371.26 669.563,1371.26 679.483,1358.28 689.392,1358.28 699.304,1345.3 710.816,1345.3 723.054,1332.32 733.024,1332.32 743.211,1332.32 753.127,1319.34 763.04,1319.34 773.054,1319.34 782.991,1306.36 792.932,1306.36 802.85,1306.36 813.017,1306.36 822.865,1306.36 832.771,1293.37 842.715,1293.37 852.673,1293.37 862.582,1293.37 874.127,1293.37 884.101,1280.39 894.069,1280.39 "/>
<circle clip-path="url(#clip132)" cx="307.043" cy="86.1857" r="14.4" fill="#009af9" fill-rule="evenodd" fill-opacity="1" stroke="none"/>
<circle clip-path="url(#clip132)" cx="362.736" cy="254.933" r="14.4" fill="#009af9" fill-rule="evenodd" fill-opacity="1" stroke="none"/>
<circle clip-path="url(#clip132)" cx="379.023" cy="384.738" r="14.4" fill="#009af9" fill-rule="evenodd" fill-opacity="1" stroke="none"/>
<circle clip-path="url(#clip132)" cx="399.484" cy="540.504" r="14.4" fill="#009af9" fill-rule="evenodd" fill-opacity="1" stroke="none"/>
<circle clip-path="url(#clip132)" cx="409.979" cy="696.27" r="14.4" fill="#009af9" fill-rule="evenodd" fill-opacity="1" stroke="none"/>
<circle clip-path="url(#clip132)" cx="420.398" cy="800.115" r="14.4" fill="#009af9" fill-rule="evenodd" fill-opacity="1" stroke="none"/>
<circle clip-path="url(#clip132)" cx="430.495" cy="877.998" r="14.4" fill="#009af9" fill-rule="evenodd" fill-opacity="1" stroke="none"/>
<circle clip-path="url(#clip132)" cx="440.548" cy="955.881" r="14.4" fill="#009af9" fill-rule="evenodd" fill-opacity="1" stroke="none"/>
<circle clip-path="url(#clip132)" cx="450.588" cy="1020.78" r="14.4" fill="#009af9" fill-rule="evenodd" fill-opacity="1" stroke="none"/>
<circle clip-path="url(#clip132)" cx="460.587" cy="1072.71" r="14.4" fill="#009af9" fill-rule="evenodd" fill-opacity="1" stroke="none"/>
<circle clip-path="url(#clip132)" cx="470.614" cy="1124.63" r="14.4" fill="#009af9" fill-rule="evenodd" fill-opacity="1" stroke="none"/>
<circle clip-path="url(#clip132)" cx="480.546" cy="1163.57" r="14.4" fill="#009af9" fill-rule="evenodd" fill-opacity="1" stroke="none"/>
<circle clip-path="url(#clip132)" cx="490.634" cy="1202.51" r="14.4" fill="#009af9" fill-rule="evenodd" fill-opacity="1" stroke="none"/>
<circle clip-path="url(#clip132)" cx="500.585" cy="1228.47" r="14.4" fill="#009af9" fill-rule="evenodd" fill-opacity="1" stroke="none"/>
<circle clip-path="url(#clip132)" cx="513.934" cy="1241.45" r="14.4" fill="#009af9" fill-rule="evenodd" fill-opacity="1" stroke="none"/>
<circle clip-path="url(#clip132)" cx="529.071" cy="1267.41" r="14.4" fill="#009af9" fill-rule="evenodd" fill-opacity="1" stroke="none"/>
<circle clip-path="url(#clip132)" cx="544.206" cy="1306.36" r="14.4" fill="#009af9" fill-rule="evenodd" fill-opacity="1" stroke="none"/>
<circle clip-path="url(#clip132)" cx="560.075" cy="1332.32" r="14.4" fill="#009af9" fill-rule="evenodd" fill-opacity="1" stroke="none"/>
<circle clip-path="url(#clip132)" cx="570.133" cy="1345.3" r="14.4" fill="#009af9" fill-rule="evenodd" fill-opacity="1" stroke="none"/>
<circle clip-path="url(#clip132)" cx="580.138" cy="1358.28" r="14.4" fill="#009af9" fill-rule="evenodd" fill-opacity="1" stroke="none"/>
<circle clip-path="url(#clip132)" cx="590.063" cy="1371.26" r="14.4" fill="#009af9" fill-rule="evenodd" fill-opacity="1" stroke="none"/>
<circle clip-path="url(#clip132)" cx="599.965" cy="1371.26" r="14.4" fill="#009af9" fill-rule="evenodd" fill-opacity="1" stroke="none"/>
<circle clip-path="url(#clip132)" cx="610.035" cy="1371.26" r="14.4" fill="#009af9" fill-rule="evenodd" fill-opacity="1" stroke="none"/>
<circle clip-path="url(#clip132)" cx="619.996" cy="1384.24" r="14.4" fill="#009af9" fill-rule="evenodd" fill-opacity="1" stroke="none"/>
<circle clip-path="url(#clip132)" cx="629.907" cy="1384.24" r="14.4" fill="#009af9" fill-rule="evenodd" fill-opacity="1" stroke="none"/>
<circle clip-path="url(#clip132)" cx="639.82" cy="1384.24" r="14.4" fill="#009af9" fill-rule="evenodd" fill-opacity="1" stroke="none"/>
<circle clip-path="url(#clip132)" cx="649.718" cy="1371.26" r="14.4" fill="#009af9" fill-rule="evenodd" fill-opacity="1" stroke="none"/>
<circle clip-path="url(#clip132)" cx="659.633" cy="1371.26" r="14.4" fill="#009af9" fill-rule="evenodd" fill-opacity="1" stroke="none"/>
<circle clip-path="url(#clip132)" cx="669.563" cy="1371.26" r="14.4" fill="#009af9" fill-rule="evenodd" fill-opacity="1" stroke="none"/>
<circle clip-path="url(#clip132)" cx="679.483" cy="1358.28" r="14.4" fill="#009af9" fill-rule="evenodd" fill-opacity="1" stroke="none"/>
<circle clip-path="url(#clip132)" cx="689.392" cy="1358.28" r="14.4" fill="#009af9" fill-rule="evenodd" fill-opacity="1" stroke="none"/>
<circle clip-path="url(#clip132)" cx="699.304" cy="1345.3" r="14.4" fill="#009af9" fill-rule="evenodd" fill-opacity="1" stroke="none"/>
<circle clip-path="url(#clip132)" cx="710.816" cy="1345.3" r="14.4" fill="#009af9" fill-rule="evenodd" fill-opacity="1" stroke="none"/>
<circle clip-path="url(#clip132)" cx="723.054" cy="1332.32" r="14.4" fill="#009af9" fill-rule="evenodd" fill-opacity="1" stroke="none"/>
<circle clip-path="url(#clip132)" cx="733.024" cy="1332.32" r="14.4" fill="#009af9" fill-rule="evenodd" fill-opacity="1" stroke="none"/>
<circle clip-path="url(#clip132)" cx="743.211" cy="1332.32" r="14.4" fill="#009af9" fill-rule="evenodd" fill-opacity="1" stroke="none"/>
<circle clip-path="url(#clip132)" cx="753.127" cy="1319.34" r="14.4" fill="#009af9" fill-rule="evenodd" fill-opacity="1" stroke="none"/>
<circle clip-path="url(#clip132)" cx="763.04" cy="1319.34" r="14.4" fill="#009af9" fill-rule="evenodd" fill-opacity="1" stroke="none"/>
<circle clip-path="url(#clip132)" cx="773.054" cy="1319.34" r="14.4" fill="#009af9" fill-rule="evenodd" fill-opacity="1" stroke="none"/>
<circle clip-path="url(#clip132)" cx="782.991" cy="1306.36" r="14.4" fill="#009af9" fill-rule="evenodd" fill-opacity="1" stroke="none"/>
<circle clip-path="url(#clip132)" cx="792.932" cy="1306.36" r="14.4" fill="#009af9" fill-rule="evenodd" fill-opacity="1" stroke="none"/>
<circle clip-path="url(#clip132)" cx="802.85" cy="1306.36" r="14.4" fill="#009af9" fill-rule="evenodd" fill-opacity="1" stroke="none"/>
<circle clip-path="url(#clip132)" cx="813.017" cy="1306.36" r="14.4" fill="#009af9" fill-rule="evenodd" fill-opacity="1" stroke="none"/>
<circle clip-path="url(#clip132)" cx="822.865" cy="1306.36" r="14.4" fill="#009af9" fill-rule="evenodd" fill-opacity="1" stroke="none"/>
<circle clip-path="url(#clip132)" cx="832.771" cy="1293.37" r="14.4" fill="#009af9" fill-rule="evenodd" fill-opacity="1" stroke="none"/>
<circle clip-path="url(#clip132)" cx="842.715" cy="1293.37" r="14.4" fill="#009af9" fill-rule="evenodd" fill-opacity="1" stroke="none"/>
<circle clip-path="url(#clip132)" cx="852.673" cy="1293.37" r="14.4" fill="#009af9" fill-rule="evenodd" fill-opacity="1" stroke="none"/>
<circle clip-path="url(#clip132)" cx="862.582" cy="1293.37" r="14.4" fill="#009af9" fill-rule="evenodd" fill-opacity="1" stroke="none"/>
<circle clip-path="url(#clip132)" cx="874.127" cy="1293.37" r="14.4" fill="#009af9" fill-rule="evenodd" fill-opacity="1" stroke="none"/>
<circle clip-path="url(#clip132)" cx="884.101" cy="1280.39" r="14.4" fill="#009af9" fill-rule="evenodd" fill-opacity="1" stroke="none"/>
<circle clip-path="url(#clip132)" cx="894.069" cy="1280.39" r="14.4" fill="#009af9" fill-rule="evenodd" fill-opacity="1" stroke="none"/>
<polyline clip-path="url(#clip132)" style="stroke:#e26f46; stroke-linecap:round; stroke-linejoin:round; stroke-width:4; stroke-opacity:1; fill:none" points="307.043,86.1857 361.74,397.718 372.277,592.426 382.603,813.095 392.768,968.861 402.766,1072.71 412.719,1150.59 422.763,1189.53 432.776,1241.45 442.78,1293.37 453.846,1332.32 463.895,1345.3 474.084,1358.28 484.043,1371.26 494.038,1384.24 503.994,1384.24 513.931,1371.26 523.949,1358.28 533.908,1358.28 545.308,1345.3 558.866,1332.32 572.41,1332.32 582.895,1319.34 592.839,1319.34 603.872,1306.36 613.908,1306.36 623.932,1293.37 633.933,1293.37 643.868,1280.39 653.837,1280.39 663.783,1280.39 673.719,1280.39 683.812,1280.39 693.736,1280.39 703.696,1280.39 713.68,1280.39 723.622,1280.39 733.637,1280.39 744.621,1280.39 754.636,1280.39 764.665,1280.39 "/>
<circle clip-path="url(#clip132)" cx="307.043" cy="86.1857" r="14.4" fill="#e26f46" fill-rule="evenodd" fill-opacity="1" stroke="none"/>
<circle clip-path="url(#clip132)" cx="361.74" cy="397.718" r="14.4" fill="#e26f46" fill-rule="evenodd" fill-opacity="1" stroke="none"/>
<circle clip-path="url(#clip132)" cx="372.277" cy="592.426" r="14.4" fill="#e26f46" fill-rule="evenodd" fill-opacity="1" stroke="none"/>
<circle clip-path="url(#clip132)" cx="382.603" cy="813.095" r="14.4" fill="#e26f46" fill-rule="evenodd" fill-opacity="1" stroke="none"/>
<circle clip-path="url(#clip132)" cx="392.768" cy="968.861" r="14.4" fill="#e26f46" fill-rule="evenodd" fill-opacity="1" stroke="none"/>
<circle clip-path="url(#clip132)" cx="402.766" cy="1072.71" r="14.4" fill="#e26f46" fill-rule="evenodd" fill-opacity="1" stroke="none"/>
<circle clip-path="url(#clip132)" cx="412.719" cy="1150.59" r="14.4" fill="#e26f46" fill-rule="evenodd" fill-opacity="1" stroke="none"/>
<circle clip-path="url(#clip132)" cx="422.763" cy="1189.53" r="14.4" fill="#e26f46" fill-rule="evenodd" fill-opacity="1" stroke="none"/>
<circle clip-path="url(#clip132)" cx="432.776" cy="1241.45" r="14.4" fill="#e26f46" fill-rule="evenodd" fill-opacity="1" stroke="none"/>
<circle clip-path="url(#clip132)" cx="442.78" cy="1293.37" r="14.4" fill="#e26f46" fill-rule="evenodd" fill-opacity="1" stroke="none"/>
<circle clip-path="url(#clip132)" cx="453.846" cy="1332.32" r="14.4" fill="#e26f46" fill-rule="evenodd" fill-opacity="1" stroke="none"/>
<circle clip-path="url(#clip132)" cx="463.895" cy="1345.3" r="14.4" fill="#e26f46" fill-rule="evenodd" fill-opacity="1" stroke="none"/>
<circle clip-path="url(#clip132)" cx="474.084" cy="1358.28" r="14.4" fill="#e26f46" fill-rule="evenodd" fill-opacity="1" stroke="none"/>
<circle clip-path="url(#clip132)" cx="484.043" cy="1371.26" r="14.4" fill="#e26f46" fill-rule="evenodd" fill-opacity="1" stroke="none"/>
<circle clip-path="url(#clip132)" cx="494.038" cy="1384.24" r="14.4" fill="#e26f46" fill-rule="evenodd" fill-opacity="1" stroke="none"/>
<circle clip-path="url(#clip132)" cx="503.994" cy="1384.24" r="14.4" fill="#e26f46" fill-rule="evenodd" fill-opacity="1" stroke="none"/>
<circle clip-path="url(#clip132)" cx="513.931" cy="1371.26" r="14.4" fill="#e26f46" fill-rule="evenodd" fill-opacity="1" stroke="none"/>
<circle clip-path="url(#clip132)" cx="523.949" cy="1358.28" r="14.4" fill="#e26f46" fill-rule="evenodd" fill-opacity="1" stroke="none"/>
<circle clip-path="url(#clip132)" cx="533.908" cy="1358.28" r="14.4" fill="#e26f46" fill-rule="evenodd" fill-opacity="1" stroke="none"/>
<circle clip-path="url(#clip132)" cx="545.308" cy="1345.3" r="14.4" fill="#e26f46" fill-rule="evenodd" fill-opacity="1" stroke="none"/>
<circle clip-path="url(#clip132)" cx="558.866" cy="1332.32" r="14.4" fill="#e26f46" fill-rule="evenodd" fill-opacity="1" stroke="none"/>
<circle clip-path="url(#clip132)" cx="572.41" cy="1332.32" r="14.4" fill="#e26f46" fill-rule="evenodd" fill-opacity="1" stroke="none"/>
<circle clip-path="url(#clip132)" cx="582.895" cy="1319.34" r="14.4" fill="#e26f46" fill-rule="evenodd" fill-opacity="1" stroke="none"/>
<circle clip-path="url(#clip132)" cx="592.839" cy="1319.34" r="14.4" fill="#e26f46" fill-rule="evenodd" fill-opacity="1" stroke="none"/>
<circle clip-path="url(#clip132)" cx="603.872" cy="1306.36" r="14.4" fill="#e26f46" fill-rule="evenodd" fill-opacity="1" stroke="none"/>
<circle clip-path="url(#clip132)" cx="613.908" cy="1306.36" r="14.4" fill="#e26f46" fill-rule="evenodd" fill-opacity="1" stroke="none"/>
<circle clip-path="url(#clip132)" cx="623.932" cy="1293.37" r="14.4" fill="#e26f46" fill-rule="evenodd" fill-opacity="1" stroke="none"/>
<circle clip-path="url(#clip132)" cx="633.933" cy="1293.37" r="14.4" fill="#e26f46" fill-rule="evenodd" fill-opacity="1" stroke="none"/>
<circle clip-path="url(#clip132)" cx="643.868" cy="1280.39" r="14.4" fill="#e26f46" fill-rule="evenodd" fill-opacity="1" stroke="none"/>
<circle clip-path="url(#clip132)" cx="653.837" cy="1280.39" r="14.4" fill="#e26f46" fill-rule="evenodd" fill-opacity="1" stroke="none"/>
<circle clip-path="url(#clip132)" cx="663.783" cy="1280.39" r="14.4" fill="#e26f46" fill-rule="evenodd" fill-opacity="1" stroke="none"/>
<circle clip-path="url(#clip132)" cx="673.719" cy="1280.39" r="14.4" fill="#e26f46" fill-rule="evenodd" fill-opacity="1" stroke="none"/>
<circle clip-path="url(#clip132)" cx="683.812" cy="1280.39" r="14.4" fill="#e26f46" fill-rule="evenodd" fill-opacity="1" stroke="none"/>
<circle clip-path="url(#clip132)" cx="693.736" cy="1280.39" r="14.4" fill="#e26f46" fill-rule="evenodd" fill-opacity="1" stroke="none"/>
<circle clip-path="url(#clip132)" cx="703.696" cy="1280.39" r="14.4" fill="#e26f46" fill-rule="evenodd" fill-opacity="1" stroke="none"/>
<circle clip-path="url(#clip132)" cx="713.68" cy="1280.39" r="14.4" fill="#e26f46" fill-rule="evenodd" fill-opacity="1" stroke="none"/>
<circle clip-path="url(#clip132)" cx="723.622" cy="1280.39" r="14.4" fill="#e26f46" fill-rule="evenodd" fill-opacity="1" stroke="none"/>
<circle clip-path="url(#clip132)" cx="733.637" cy="1280.39" r="14.4" fill="#e26f46" fill-rule="evenodd" fill-opacity="1" stroke="none"/>
<circle clip-path="url(#clip132)" cx="744.621" cy="1280.39" r="14.4" fill="#e26f46" fill-rule="evenodd" fill-opacity="1" stroke="none"/>
<circle clip-path="url(#clip132)" cx="754.636" cy="1280.39" r="14.4" fill="#e26f46" fill-rule="evenodd" fill-opacity="1" stroke="none"/>
<circle clip-path="url(#clip132)" cx="764.665" cy="1280.39" r="14.4" fill="#e26f46" fill-rule="evenodd" fill-opacity="1" stroke="none"/>
<polyline clip-path="url(#clip132)" style="stroke:#3da44d; stroke-linecap:round; stroke-linejoin:round; stroke-width:4; stroke-opacity:1; fill:none" points="307.043,86.1857 1018.59,1280.39 1658.86,1280.39 2293.17,1280.39 "/>
<circle clip-path="url(#clip132)" cx="307.043" cy="86.1857" r="14.4" fill="#3da44d" fill-rule="evenodd" fill-opacity="1" stroke="none"/>
<circle clip-path="url(#clip132)" cx="1018.59" cy="1280.39" r="14.4" fill="#3da44d" fill-rule="evenodd" fill-opacity="1" stroke="none"/>
<circle clip-path="url(#clip132)" cx="1658.86" cy="1280.39" r="14.4" fill="#3da44d" fill-rule="evenodd" fill-opacity="1" stroke="none"/>
<circle clip-path="url(#clip132)" cx="2293.17" cy="1280.39" r="14.4" fill="#3da44d" fill-rule="evenodd" fill-opacity="1" stroke="none"/>
<polyline clip-path="url(#clip132)" style="stroke:#c271d2; stroke-linecap:round; stroke-linejoin:round; stroke-width:4; stroke-opacity:1; fill:none" points="307.043,86.1857 452.497,1280.39 557.993,1371.26 663.412,1306.36 771.551,1280.39 876.244,1280.39 980.128,1280.39 1085.69,1280.39 1191.06,1280.39 1296.22,1280.39 1402.93,1280.39 1508.27,1280.39 1613.06,1280.39 1718.32,1280.39 1822.68,1280.39 "/>
<circle clip-path="url(#clip132)" cx="307.043" cy="86.1857" r="14.4" fill="#c271d2" fill-rule="evenodd" fill-opacity="1" stroke="none"/>
<circle clip-path="url(#clip132)" cx="452.497" cy="1280.39" r="14.4" fill="#c271d2" fill-rule="evenodd" fill-opacity="1" stroke="none"/>
<circle clip-path="url(#clip132)" cx="557.993" cy="1371.26" r="14.4" fill="#c271d2" fill-rule="evenodd" fill-opacity="1" stroke="none"/>
<circle clip-path="url(#clip132)" cx="663.412" cy="1306.36" r="14.4" fill="#c271d2" fill-rule="evenodd" fill-opacity="1" stroke="none"/>
<circle clip-path="url(#clip132)" cx="771.551" cy="1280.39" r="14.4" fill="#c271d2" fill-rule="evenodd" fill-opacity="1" stroke="none"/>
<circle clip-path="url(#clip132)" cx="876.244" cy="1280.39" r="14.4" fill="#c271d2" fill-rule="evenodd" fill-opacity="1" stroke="none"/>
<circle clip-path="url(#clip132)" cx="980.128" cy="1280.39" r="14.4" fill="#c271d2" fill-rule="evenodd" fill-opacity="1" stroke="none"/>
<circle clip-path="url(#clip132)" cx="1085.69" cy="1280.39" r="14.4" fill="#c271d2" fill-rule="evenodd" fill-opacity="1" stroke="none"/>
<circle clip-path="url(#clip132)" cx="1191.06" cy="1280.39" r="14.4" fill="#c271d2" fill-rule="evenodd" fill-opacity="1" stroke="none"/>
<circle clip-path="url(#clip132)" cx="1296.22" cy="1280.39" r="14.4" fill="#c271d2" fill-rule="evenodd" fill-opacity="1" stroke="none"/>
<circle clip-path="url(#clip132)" cx="1402.93" cy="1280.39" r="14.4" fill="#c271d2" fill-rule="evenodd" fill-opacity="1" stroke="none"/>
<circle clip-path="url(#clip132)" cx="1508.27" cy="1280.39" r="14.4" fill="#c271d2" fill-rule="evenodd" fill-opacity="1" stroke="none"/>
<circle clip-path="url(#clip132)" cx="1613.06" cy="1280.39" r="14.4" fill="#c271d2" fill-rule="evenodd" fill-opacity="1" stroke="none"/>
<circle clip-path="url(#clip132)" cx="1718.32" cy="1280.39" r="14.4" fill="#c271d2" fill-rule="evenodd" fill-opacity="1" stroke="none"/>
<circle clip-path="url(#clip132)" cx="1822.68" cy="1280.39" r="14.4" fill="#c271d2" fill-rule="evenodd" fill-opacity="1" stroke="none"/>
<path clip-path="url(#clip130)" d="M1955.55 352.309 L2282.58 352.309 L2282.58 93.1086 L1955.55 93.1086  Z" fill="#ffffff" fill-rule="evenodd" fill-opacity="1"/>
<polyline clip-path="url(#clip130)" style="stroke:#000000; stroke-linecap:round; stroke-linejoin:round; stroke-width:4; stroke-opacity:1; fill:none" points="1955.55,352.309 2282.58,352.309 2282.58,93.1086 1955.55,93.1086 1955.55,352.309 "/>
<polyline clip-path="url(#clip130)" style="stroke:#009af9; stroke-linecap:round; stroke-linejoin:round; stroke-width:4; stroke-opacity:1; fill:none" points="1978.94,144.949 2119.29,144.949 "/>
<circle clip-path="url(#clip130)" cx="2049.11" cy="144.949" r="19.4935" fill="#009af9" fill-rule="evenodd" fill-opacity="1" stroke="none"/>
<path clip-path="url(#clip130)" d="M2142.68 127.669 L2148.98 127.669 L2164.3 156.581 L2164.3 127.669 L2168.84 127.669 L2168.84 162.229 L2162.54 162.229 L2147.22 133.317 L2147.22 162.229 L2142.68 162.229 L2142.68 127.669 Z" fill="#000000" fill-rule="nonzero" fill-opacity="1" /><path clip-path="url(#clip130)" d="M2188.01 139.289 Q2184.58 139.289 2182.59 141.974 Q2180.6 144.636 2180.6 149.289 Q2180.6 153.942 2182.57 156.627 Q2184.56 159.289 2188.01 159.289 Q2191.41 159.289 2193.4 156.604 Q2195.39 153.918 2195.39 149.289 Q2195.39 144.682 2193.4 141.997 Q2191.41 139.289 2188.01 139.289 M2188.01 135.678 Q2193.56 135.678 2196.73 139.289 Q2199.91 142.9 2199.91 149.289 Q2199.91 155.655 2196.73 159.289 Q2193.56 162.9 2188.01 162.9 Q2182.43 162.9 2179.26 159.289 Q2176.11 155.655 2176.11 149.289 Q2176.11 142.9 2179.26 139.289 Q2182.43 135.678 2188.01 135.678 Z" fill="#000000" fill-rule="nonzero" fill-opacity="1" /><path clip-path="url(#clip130)" d="M2228.52 146.581 L2228.52 162.229 L2224.26 162.229 L2224.26 146.719 Q2224.26 143.039 2222.82 141.21 Q2221.39 139.382 2218.52 139.382 Q2215.07 139.382 2213.08 141.581 Q2211.09 143.78 2211.09 147.576 L2211.09 162.229 L2206.8 162.229 L2206.8 136.303 L2211.09 136.303 L2211.09 140.331 Q2212.61 137.993 2214.67 136.835 Q2216.76 135.678 2219.47 135.678 Q2223.93 135.678 2226.22 138.456 Q2228.52 141.21 2228.52 146.581 Z" fill="#000000" fill-rule="nonzero" fill-opacity="1" /><path clip-path="url(#clip130)" d="M2259.19 148.201 L2259.19 150.284 L2239.6 150.284 Q2239.88 154.682 2242.24 156.997 Q2244.63 159.289 2248.86 159.289 Q2251.32 159.289 2253.61 158.687 Q2255.92 158.085 2258.19 156.881 L2258.19 160.909 Q2255.9 161.881 2253.49 162.391 Q2251.09 162.9 2248.61 162.9 Q2242.4 162.9 2238.77 159.289 Q2235.16 155.678 2235.16 149.52 Q2235.16 143.155 2238.59 139.428 Q2242.03 135.678 2247.87 135.678 Q2253.1 135.678 2256.13 139.057 Q2259.19 142.414 2259.19 148.201 M2254.93 146.951 Q2254.88 143.456 2252.96 141.372 Q2251.06 139.289 2247.91 139.289 Q2244.35 139.289 2242.2 141.303 Q2240.07 143.317 2239.74 146.974 L2254.93 146.951 Z" fill="#000000" fill-rule="nonzero" fill-opacity="1" /><polyline clip-path="url(#clip130)" style="stroke:#e26f46; stroke-linecap:round; stroke-linejoin:round; stroke-width:4; stroke-opacity:1; fill:none" points="1978.94,196.789 2119.29,196.789 "/>
<circle clip-path="url(#clip130)" cx="2049.11" cy="196.789" r="19.4935" fill="#e26f46" fill-rule="evenodd" fill-opacity="1" stroke="none"/>
<path clip-path="url(#clip130)" d="M2147.36 183.351 L2147.36 210.226 L2153.01 210.226 Q2160.16 210.226 2163.47 206.985 Q2166.8 203.745 2166.8 196.754 Q2166.8 189.809 2163.47 186.592 Q2160.16 183.351 2153.01 183.351 L2147.36 183.351 M2142.68 179.509 L2152.29 179.509 Q2162.34 179.509 2167.03 183.698 Q2171.73 187.865 2171.73 196.754 Q2171.73 205.689 2167.01 209.879 Q2162.29 214.069 2152.29 214.069 L2142.68 214.069 L2142.68 179.509 Z" fill="#000000" fill-rule="nonzero" fill-opacity="1" /><path clip-path="url(#clip130)" d="M2179 188.143 L2183.26 188.143 L2183.26 214.069 L2179 214.069 L2179 188.143 M2179 178.05 L2183.26 178.05 L2183.26 183.444 L2179 183.444 L2179 178.05 Z" fill="#000000" fill-rule="nonzero" fill-opacity="1" /><path clip-path="url(#clip130)" d="M2203.96 201.036 Q2198.79 201.036 2196.8 202.217 Q2194.81 203.397 2194.81 206.245 Q2194.81 208.513 2196.29 209.856 Q2197.8 211.175 2200.37 211.175 Q2203.91 211.175 2206.04 208.675 Q2208.19 206.152 2208.19 201.985 L2208.19 201.036 L2203.96 201.036 M2212.45 199.277 L2212.45 214.069 L2208.19 214.069 L2208.19 210.133 Q2206.73 212.495 2204.56 213.629 Q2202.38 214.74 2199.23 214.74 Q2195.25 214.74 2192.89 212.518 Q2190.55 210.272 2190.55 206.522 Q2190.55 202.147 2193.47 199.925 Q2196.41 197.703 2202.22 197.703 L2208.19 197.703 L2208.19 197.286 Q2208.19 194.347 2206.25 192.749 Q2204.33 191.129 2200.83 191.129 Q2198.61 191.129 2196.5 191.661 Q2194.4 192.194 2192.45 193.259 L2192.45 189.323 Q2194.79 188.421 2196.99 187.981 Q2199.19 187.518 2201.27 187.518 Q2206.9 187.518 2209.67 190.434 Q2212.45 193.351 2212.45 199.277 Z" fill="#000000" fill-rule="nonzero" fill-opacity="1" /><path clip-path="url(#clip130)" d="M2238.28 200.805 Q2238.28 196.175 2236.36 193.629 Q2234.47 191.083 2231.02 191.083 Q2227.59 191.083 2225.67 193.629 Q2223.77 196.175 2223.77 200.805 Q2223.77 205.411 2225.67 207.958 Q2227.59 210.504 2231.02 210.504 Q2234.47 210.504 2236.36 207.958 Q2238.28 205.411 2238.28 200.805 M2242.54 210.851 Q2242.54 217.471 2239.6 220.689 Q2236.66 223.93 2230.6 223.93 Q2228.35 223.93 2226.36 223.582 Q2224.37 223.258 2222.5 222.564 L2222.5 218.42 Q2224.37 219.439 2226.2 219.925 Q2228.03 220.411 2229.93 220.411 Q2234.12 220.411 2236.2 218.212 Q2238.28 216.036 2238.28 211.615 L2238.28 209.508 Q2236.97 211.8 2234.9 212.934 Q2232.84 214.069 2229.97 214.069 Q2225.21 214.069 2222.29 210.434 Q2219.37 206.8 2219.37 200.805 Q2219.37 194.786 2222.29 191.152 Q2225.21 187.518 2229.97 187.518 Q2232.84 187.518 2234.9 188.652 Q2236.97 189.786 2238.28 192.078 L2238.28 188.143 L2242.54 188.143 L2242.54 210.851 Z" fill="#000000" fill-rule="nonzero" fill-opacity="1" /><polyline clip-path="url(#clip130)" style="stroke:#3da44d; stroke-linecap:round; stroke-linejoin:round; stroke-width:4; stroke-opacity:1; fill:none" points="1978.94,248.629 2119.29,248.629 "/>
<circle clip-path="url(#clip130)" cx="2049.11" cy="248.629" r="19.4935" fill="#3da44d" fill-rule="evenodd" fill-opacity="1" stroke="none"/>
<path clip-path="url(#clip130)" d="M2170.55 234.011 L2170.55 238.941 Q2168.19 236.742 2165.51 235.654 Q2162.85 234.566 2159.84 234.566 Q2153.91 234.566 2150.76 238.2 Q2147.61 241.812 2147.61 248.663 Q2147.61 255.492 2150.76 259.126 Q2153.91 262.737 2159.84 262.737 Q2162.85 262.737 2165.51 261.649 Q2168.19 260.561 2170.55 258.362 L2170.55 263.247 Q2168.1 264.913 2165.35 265.747 Q2162.61 266.58 2159.56 266.58 Q2151.71 266.58 2147.2 261.788 Q2142.68 256.973 2142.68 248.663 Q2142.68 240.33 2147.2 235.538 Q2151.71 230.724 2159.56 230.724 Q2162.66 230.724 2165.39 231.557 Q2168.15 232.367 2170.55 234.011 Z" fill="#000000" fill-rule="nonzero" fill-opacity="1" /><path clip-path="url(#clip130)" d="M2199.14 250.261 L2199.14 265.909 L2194.88 265.909 L2194.88 250.399 Q2194.88 246.719 2193.45 244.89 Q2192.01 243.062 2189.14 243.062 Q2185.69 243.062 2183.7 245.261 Q2181.71 247.46 2181.71 251.256 L2181.71 265.909 L2177.43 265.909 L2177.43 229.89 L2181.71 229.89 L2181.71 244.011 Q2183.24 241.673 2185.3 240.515 Q2187.38 239.358 2190.09 239.358 Q2194.56 239.358 2196.85 242.136 Q2199.14 244.89 2199.14 250.261 Z" fill="#000000" fill-rule="nonzero" fill-opacity="1" /><path clip-path="url(#clip130)" d="M2217.68 242.969 Q2214.26 242.969 2212.27 245.654 Q2210.28 248.316 2210.28 252.969 Q2210.28 257.622 2212.24 260.307 Q2214.23 262.969 2217.68 262.969 Q2221.09 262.969 2223.08 260.284 Q2225.07 257.598 2225.07 252.969 Q2225.07 248.362 2223.08 245.677 Q2221.09 242.969 2217.68 242.969 M2217.68 239.358 Q2223.24 239.358 2226.41 242.969 Q2229.58 246.58 2229.58 252.969 Q2229.58 259.335 2226.41 262.969 Q2223.24 266.58 2217.68 266.58 Q2212.1 266.58 2208.93 262.969 Q2205.78 259.335 2205.78 252.969 Q2205.78 246.58 2208.93 242.969 Q2212.1 239.358 2217.68 239.358 Z" fill="#000000" fill-rule="nonzero" fill-opacity="1" /><path clip-path="url(#clip130)" d="M2236.64 229.89 L2240.9 229.89 L2240.9 265.909 L2236.64 265.909 L2236.64 229.89 Z" fill="#000000" fill-rule="nonzero" fill-opacity="1" /><polyline clip-path="url(#clip130)" style="stroke:#c271d2; stroke-linecap:round; stroke-linejoin:round; stroke-width:4; stroke-opacity:1; fill:none" points="1978.94,300.469 2119.29,300.469 "/>
<circle clip-path="url(#clip130)" cx="2049.11" cy="300.469" r="19.4935" fill="#c271d2" fill-rule="evenodd" fill-opacity="1" stroke="none"/>
<path clip-path="url(#clip130)" d="M2142.68 283.189 L2147.36 283.189 L2147.36 317.749 L2142.68 317.749 L2142.68 283.189 Z" fill="#000000" fill-rule="nonzero" fill-opacity="1" /><path clip-path="url(#clip130)" d="M2182.54 285.851 L2182.54 290.781 Q2180.18 288.582 2177.5 287.494 Q2174.84 286.406 2171.83 286.406 Q2165.9 286.406 2162.75 290.04 Q2159.6 293.652 2159.6 300.503 Q2159.6 307.332 2162.75 310.966 Q2165.9 314.577 2171.83 314.577 Q2174.84 314.577 2177.5 313.489 Q2180.18 312.401 2182.54 310.202 L2182.54 315.087 Q2180.09 316.753 2177.34 317.587 Q2174.6 318.42 2171.55 318.42 Q2163.7 318.42 2159.19 313.628 Q2154.67 308.813 2154.67 300.503 Q2154.67 292.17 2159.19 287.378 Q2163.7 282.564 2171.55 282.564 Q2174.65 282.564 2177.38 283.397 Q2180.14 284.207 2182.54 285.851 Z" fill="#000000" fill-rule="nonzero" fill-opacity="1" /></svg>
